<svg width="400" height="400" viewBox="0 0 400 400" fill="none" xmlns="http://www.w3.org/2000/svg">
<path d="M179.489 88.4255C76.4498 86.7958 -1.9973 193.895 42.7541 279.57C87.5054 365.246 188.674 377.002 270.5 350.5C345.546 326.194 407.112 226.404 355.736 135.986C281.06 4.5591 134.154 56.9102 134.154 56.9102" stroke="black" stroke-width="32" stroke-linecap="round"/>
<ellipse cx="149.376" cy="211.961" rx="20.5" ry="20" transform="rotate(-9 149.376 211.961)" fill="black"/>
<circle cx="258.882" cy="204.882" r="20" transform="rotate(-9 258.882 204.882)" fill="black"/>
<path d="M130 177L163 182" stroke="black" stroke-width="32" stroke-linecap="round"/>
<path d="M246 176.5L275.5 169" stroke="black" stroke-width="32" stroke-linecap="round"/>
<path d="M154 271C154 271 163.5 286 201 286C238.5 286 255.5 275.5 255.5 275.5" stroke="black" stroke-width="32" stroke-linecap="round"/>
</svg>
