<svg width="400" height="400" viewBox="0 0 400 400" fill="none" xmlns="http://www.w3.org/2000/svg">
<path d="M179.489 88.4255C76.4498 86.7958 -1.9973 193.895 42.7541 279.57C87.5054 365.246 188.674 377.002 270.5 350.5C345.546 326.194 407.112 226.404 355.736 135.986C281.06 4.5591 134.154 56.9102 134.154 56.9102" stroke="black" stroke-width="32" stroke-linecap="round"/>
<path d="M117.073 200.307C117.073 200.307 118.574 174.715 140.463 172.027C162.352 169.339 168.189 194.03 168.189 194.03" stroke="black" stroke-width="32" stroke-linecap="round"/>
<path d="M243.759 188.749C243.759 188.749 246.597 163.271 268.597 161.733C290.597 160.194 295.134 185.157 295.134 185.157" stroke="black" stroke-width="32" stroke-linecap="round"/>
<path d="M248.427 238L168.012 243.723C168.012 243.723 165.966 308.142 215.906 302.67C260.844 297.746 248.427 238 248.427 238Z" stroke="black" stroke-width="32" stroke-linecap="round" stroke-linejoin="round"/>
</svg>
