<svg width="400" height="400" viewBox="0 0 400 400" fill="none" xmlns="http://www.w3.org/2000/svg">
<path d="M179.489 88.4255C76.4498 86.7958 -1.9973 193.895 42.7541 279.57C87.5054 365.246 188.674 377.002 270.5 350.5C345.546 326.194 407.112 226.404 355.736 135.986C281.06 4.5591 134.154 56.9102 134.154 56.9102" stroke="black" stroke-width="32" stroke-linecap="round"/>
<path d="M83 202.5C83 202.5 97.822 181 129.5 181C161.178 181 172 202.5 172 202.5" stroke="black" stroke-width="32" stroke-linecap="round" stroke-linejoin="round"/>
<ellipse cx="25.4445" cy="23.3481" rx="25.4445" ry="23.3481" transform="matrix(0.989153 -0.146887 0.166569 0.98603 87 192.475)" fill="black"/>
<path d="M234 202.5C234 202.5 248.822 181 280.5 181C312.178 181 323 202.5 323 202.5" stroke="black" stroke-width="32" stroke-linecap="round" stroke-linejoin="round"/>
<ellipse cx="25.4445" cy="23.3481" rx="25.4445" ry="23.3481" transform="matrix(0.989153 -0.146887 0.166569 0.98603 238 192.475)" fill="black"/>
<path d="M148 273.5C148 273.5 169.5 285 200.5 285C231.5 285 253 273.5 253 273.5" stroke="black" stroke-width="32" stroke-linecap="round" stroke-linejoin="round"/>
</svg>
