<svg width="400" height="400" viewBox="0 0 400 400" fill="none" xmlns="http://www.w3.org/2000/svg">
<path d="M179.489 88.4255C76.4498 86.7958 -1.9973 193.895 42.7541 279.57C87.5054 365.246 188.674 377.002 270.5 350.5C345.546 326.194 407.112 226.404 355.736 135.986C281.06 4.55913 134.154 56.9102 134.154 56.9102" stroke="black" stroke-width="32" stroke-linecap="round"/>
<ellipse cx="151.376" cy="191.961" rx="20.5" ry="20" transform="rotate(-9 151.376 191.961)" fill="black"/>
<circle cx="251.882" cy="180.882" r="20" transform="rotate(-9 251.882 180.882)" fill="black"/>
<path d="M209.5 234C224.3 234 236 245.804 236 260C236 274.196 224.3 286 209.5 286C194.7 286 183 274.196 183 260C183 245.804 194.7 234 209.5 234Z" stroke="black" stroke-width="28"/>
</svg>
